<svg xmlns="http://www.w3.org/2000/svg" xmlns:xlink="http://www.w3.org/1999/xlink" version="1.1" x="0px" y="0px" width="331.687836px" height="97.7052px" viewBox="0 0 331.687836 97.7052" enable-background="new 0 0 331.687836 97.7052" xml:space="preserve">
<g id="Layer_1">
	<path d="M306.70343 61.94598c-1.523102 1.269306-2.484375 2.069096-3.444244 2.9 c-4.75827 3.972984-10.273926 5.517136-16.342712 4.651024c-5.59024-0.797813-9.461914-4.664299-10.75238-10.783424 c-1.036041-4.912159-0.281433-9.710495 0.934204-14.389713c2.108063-8.114216 4.562561-16.139133 6.92627-24.185503 c0.415039-1.412806 1.096222-2.747425 1.654572-4.118115c0.611725-1.501683 1.781403-2.151524 3.312805-1.833937 c3.51709 0.7 6.8 2 9.6 4.363196c0.974854 0.8 1.3 2 1 3.2 c-0.527008 1.900948-1.082458 3.794197-1.642487 5.685785c-1.987823 6.714272-4.118591 13.390732-5.897888 20.2 c-0.588867 2.240189-0.469604 4.727589-0.332489 7.082062c0.170471 2.9 2.2 4.2 5 3.3 c1.303253-0.420918 2.564758-1.052448 3.742004-1.760197c1.267944-0.762325 2.389771-1.763027 3.619812-2.593933 c3.11142-2.101807 4.692902-4.973389 5.515991-8.690796c1.790253-8.085621 4.010925-16.077194 6.129395-24.087708 c0.374786-1.417208 1.01178-2.789921 1.697693-4.093773c0.869263-1.652381 2.199677-2.319765 3.944946-1.861107 c2.865173 0.8 5.7 1.7 8.1 3.443626c2.272736 1.6 2.6 2.6 1.8 5.3 c-0.833008 2.840181-1.903778 5.614649-2.650726 8.475258c-1.869446 7.159466-3.631134 14.347321-5.405426 21.5 c-2.317383 9.382862-4.139954 18.899342-7.721405 27.935764c-1.177124 2.969978-2.740662 5.699387-4.707581 8.2 c-3.847473 4.891411-9.004578 7.289764-15.11319 7.754265c-4.25766 0.323753-8.497772 0.310921-12.59549-1.196785 c-3.377228-1.242615-6.505371-2.89328-9.070679-5.463562c-2.592804-2.597839-2.904816-5.057068-0.712219-7.933311 c1.303345-1.709702 2.96225-3.161652 4.544647-4.640305c0.939453-0.877884 1.975616-0.711708 2.9 0.2 c1.46405 1.3 2.9 2.8 4.4 3.950989c1.887451 1.4 3.8 2.9 5.9 3.8 c3.897827 1.7 6.2 1 8.18396-2.721275c1.529419-2.852127 2.748383-5.908264 3.771973-8.984634 C304.441895 70.6 305.4 66.6 306.7 61.94598z"/>
	<path d="M71.1297 59.103611c-0.94371 5.7 1.9 11.1 7.1 12.2 c5.232948 1.1 9.491898-0.393044 13.418739-3.549545c0.617088-0.496025 4.017464-3.147133 4.625-3.65625 c0.858147-0.719147 0.655594-0.307438 1.5 0.239578c0.998253 0.6 0.2 1.1 1 2 c1.409637 1.7 1.4 3.4 0.2 5.183784c-1.621704 2.294952-3.763702 4.071205-6.133949 5.5 c-8.801804 5.425346-18.49147 5.292534-27.958763 1.108154c-5.479675-2.421921-8.66227-6.8274-9.645844-12.6633 c-1.903889-11.296413 0.429531-21.636806 7.618187-30.677212c3.969139-4.99156 9.208893-7.999449 15.502396-9.134207 c5.017525-0.90469 10.035797-1.008099 15.1 0.001184c0.772308 0.2 1.5 0.4 2.3 0.6 c6.492577 1.9 10.2 6.9 10.2 13.940115c0.037529 6.387848-2.283775 11.570045-7.577843 15.3 c-2.751205 1.920025-5.995468 2.431557-9.213043 2.986813c-5.020065 0.866295-10.083397 0.550419-15.133789 0.6 C72.998672 59.1 72 59.1 71.1 59.103611z M72.228043 50.3 c4.210365-0.324665 7.859184-0.453457 11.459381-0.941185c2.141037-0.290062 4.28537-1.093262 5.432976-3.189709 c1.196831-2.186378 1.928146-4.531429 1.818428-7.082401c-0.059044-1.372669-0.575119-2.489075-1.664513-3.31686 c-2.135918-1.623001-8.950012-1.6716-11.088318 0.916515C75.00676 40.6 73.3 45 72.2 50.334328z"/>
	<path d="M53.170078 40.15493c0.107574 5.333092-1.5527 9.689991-3.385014 14 c-3.388744 7.889946-7.958035 15.01403-14.226219 20.971283c-5.410589 5.142204-11.697771 8.507515-19.243382 8.8 C6.731441 84.4 0.7 79.1 0.1 69.076599c-0.294367-4.479355 0.426797-8.89793 1.58663-13.201077 c1.948968-7.230946 4.071865-14.41534 6.161648-21.607685c0.356404-1.22662 0.863678-2.417076 1.386591-3.586069 c1.129883-2.525894 1.965866-3.071493 4.636327-2.4517c3.09122 0.7 6 2 8.5 3.9 c1.390739 1 1.8 2.3 1.4 3.903416c-0.228971 1.05814-0.521622 2.107513-0.86113 3.1 c-2.411467 7.304611-4.864605 14.602516-6.467257 22.134933c-0.464842 2.184734-0.534957 4.496819-0.469603 6.7 c0.110941 3.8 3 5.1 6.6 3.722588c2.64113-1.000244 4.848808-2.763855 6.62322-4.90345 c4.699009-5.6661 7.683655-12.174763 8.800549-19.465137c0.441986-2.885029 0.141342-5.731812-1.513329-8.289646 c-0.373821-0.577866-0.665485-1.209438-0.986961-1.820507c-1.372089-2.608063-1.276497-3.52256 0.861877-5.442648 c2.339275-2.100487 5.156891-3.217049 8.24292-3.729813c2.445004-0.406252 4.2 0.6 5.6 2.5 C52.380791 33.7 53.4 37 53.2 40.15493z"/>
	<path d="M179.317368 19.427565c3.649918-0.169359 9.2 0.7 13.2 2.5 c5.096405 2.3 7.1 5.9 6.5 11.408787c-0.121063 1.051239-0.553406 2.083809-0.949982 3.1 c-0.604675 1.522125-1.778839 2.452129-3.427734 2.338963c-2.444382-0.167763-4.911865-0.362484-7.299774-0.872269 c-1.83963-0.392738-2.083633-1.060555-2.019485-3.057117c0.015915-0.495152 0.085922-0.988373 0.108765-1.483513 c0.107208-2.324205-0.275818-3.101238-2.398819-3.857687c-2.584671-0.920956-5.263687-0.999775-7.813797 0.1 c-3.480392 1.517834-4.239578 5.665001-1.494736 8.308052c0.971695 0.9 2.2 1.7 3.5 2.2 c3.767227 1.7 7.6 3.3 11.4 4.98159c2.841415 1.2 5.4 2.9 7.3 5.4 c1.211746 1.6 1.8 3.4 2 5.469151c0.790604 8.834435-4.459213 14.490601-10.570465 17.2 c-8.124634 3.619385-16.451324 3.854774-24.871872 1.103836c-2.273895-0.742867-4.277618-1.980186-6.072433-3.59536 c-4.074585-3.666748-4.685806-8.268642-3.63295-13.290134c0.403961-1.926762 1.358154-2.789063 3.31015-2.759548 c2.653229 0 5.3 0.3 7.9 0.688072c1.897263 0.3 2.5 1.1 2.3 2.8 c-0.57515 6.1 3.8 7.6 8.8 7.620689c1.327316 0 2.706238-0.54483 3.9767-1.052261 c2.067566-0.825794 2.932968-2.639015 3.087723-4.708275c0.148987-1.991905-1.003647-3.374035-2.717804-4.236164 c-2.821991-1.419292-5.693634-2.739967-8.513306-4.1637c-2.291382-1.15699-4.60965-2.286846-6.790207-3.632553 c-7.6586-4.726437-8.589813-13.125107-4.279938-20.144779c2.377823-3.872879 6.023392-5.981823 10.233688-7.065933 C173.33786 20 174.9 19.8 179.3 19.427565z"/>
	<path d="M266.46344 52.990265c2.263153 1.1 2.8 3 3.4 4.9 c0.357605 1.187679-0.353668 2.143574-1.040344 2.968037c-4.047607 4.859821-9.025116 8.201405-15.332275 9.5 c-2.191406 0.43856-4.293121 0.416084-6.465393-0.007645c-5.178101-1.010033-8.20047-4.387344-8.594864-9.861691 c-0.271637-3.770065 0.151413-7.50407 0.870529-11.220242c1.499344-7.748283 2.910233-15.513683 4.395813-23.477539 c-0.772736-0.063255-1.530838-0.1556-2.291214-0.180571c-1.189819-0.039076-2.388535 0.047426-3.570313-0.061941 c-2.49881-0.231266-3.320297-1.285982-2.972427-3.73131c0.096878-0.680822 0.334015-1.341909 0.509903-2.011234 c0.861084-3.276646 1.405487-3.719742 4.657974-3.741501c1.877045-0.012558 3.754272-0.002279 5.766983-0.002279 c0.719894-3.371761 1.379623-6.636621 2.118698-9.883423C249.099976 1 250.292496-0.000324 255.7 0 c1.774414 0 3.6 0 5.3 0.342735c2.70874 0.5 3.3 1.6 2.8 4.2 c-0.615051 2.996473-1.309814 5.976542-1.932617 8.971509c-0.153564 0.738523-0.16214 1.507189-0.245331 2.3 c4.801727 0.8 9.610992-0.602589 14.5 1.026108c-0.1586 1.852278-0.120911 3.538786-0.480682 5.1 c-0.599243 2.659666-1.593506 3.425507-4.3685 3.531805c-2.775116 0.106314-5.556793 0.043518-8.335602 0.1 c-1.08078 0.003494-2.161652 0.000568-3.459137 0.000568c-1.067047 5.006639-2.177399 9.890461-3.13385 14.8 c-0.811584 4.169346-1.514648 8.363369-2.117142 12.56776c-0.189667 1.323505-0.135193 2.8 0.2 4.1 c0.500641 1.7 1.8 2.3 3.5 1.549026c1.686829-0.792198 3.252045-1.859726 4.819122-2.885288 C263.983978 54.9 265.1 54 266.5 52.990265z"/>
	<path d="M128.544846 27.469757c1.881012-0.95116 3.202942-1.614281 4.520142-2.286655 c3.728058-1.903015 7.686142-2.430197 11.814331-2.029715c4.182358 0.4 9.1 3.4 9.1 9.5 c-0.032104 3.188602-0.274933 6.32362-1.380173 9.334145c-0.885895 2.412975-1.864761 3.234631-4.419693 3.1 c-2.342987-0.127251-4.724625-0.449215-6.977203-1.083393c-2.326294-0.654938-2.626526-1.506187-2.319153-3.941429 c0.086777-0.687347 0.130142-1.383415 0.142242-2.076382c0.047485-2.718388-1.590195-4.293396-4.26738-3.961979 c-2.492813 0.308598-4.822464 1.231297-6.73436 2.839851c-0.737381 0.620373-1.172165 1.800625-1.390327 2.8 c-0.902222 4.145279-1.648361 8.324226-2.490051 12.483074c-1.095604 5.413345-2.217209 10.821507-3.348663 16.2 c-0.464638 2.220009-0.940056 4.439529-1.489182 6.639664c-0.787666 3.15593-1.974815 4.181534-5.23098 4 c-2.444725-0.132019-4.909691-0.527428-7.284355-1.12735c-2.1017-0.530983-2.658401-1.315437-2.420738-3.463005 c0.335548-3.032082 0.904739-6.051888 1.579361-9.030441c2.376312-10.491768 4.74588-20.98077 6.287941-31.639679 c0.352486-2.436466 1.043129-4.822128 1.491814-7.247141c0.355995-1.924065 1.587769-2.948534 3.348465-3.314926 c2.933174-0.610378 5.90123-0.691259 8.8 0.010878C127.818542 23.7 129.1 24.8 128.5 27.469757z"/>
	<path d="M202.77742 59.810577c-0.130768-5.102448 1.382172-9.946388 2.48764-14.846317 c1.649063-7.309361 3.487823-14.576021 5.259598-21.85751c0.232468-0.955366 0.4841-1.914804 0.835876-2.830467 c0.609375-1.586149 1.814804-2.623652 3.437302-3.015392c3.129791-0.755653 6.298111-0.623369 9.4 0 c2.074432 0.4 2.8 1.4 2.3 3.731222c-0.531921 2.901445-1.336594 5.754461-2.06308 8.6 c-1.962708 7.737192-4.011383 15.45347-5.872971 23.214743c-0.430084 1.793095-0.431473 3.74548-0.303482 5.6 c0.169861 2.5 1.6 3.4 3.9 2.306168c2.028473-0.952808 3.852539-2.346088 5.747269-3.57513 c0.57666-0.374069 1.054443-0.903454 1.638351-1.262825c0.873383-0.537498 1.690521-0.326607 2.4 0.4 c2.179626 2.1 2.5 5.1 0.5 7.445419c-3.908112 4.551479-8.834152 7.531467-14.736786 8.8 c-2.436615 0.528198-4.842575 0.82795-7.327576 0.063461c-4.314163-1.327202-7.223175-4.745949-7.576828-9.243763 C202.698532 62.2 202.8 61 202.8 59.810577z"/>
</g>
<g id="Layer_2">
	<g>
		<path d="M86.069008 75.742226c4.106728-3.096931 8.805458-4.921173 12.75563-8.306252 c4.462578-3.824169 8.65065-7.993999 11.641251-13.090626c1.635391-2.787067-2.687088-5.301926-4.317352-2.523598 c-2.531212 4.313728-5.304329 6.836124-8.697601 10.462566c-8.646172 9.240273-11.322189 8.263702-15.749275 9.8 C78.706451 73.2 83.5 77.7 86.1 75.742226L86.069008 75.742226z"/>
	</g>
	<g>
		<path d="M90.057213 75.291885c7.500992-3.554008 12.903343-9.781769 18.005966-16.140911 c1.996933-2.488678-1.517349-6.05069-3.53553-3.535534c-4.847275 6.040913-9.861511 11.97966-16.994034 15.4 C84.621109 72.4 87.2 76.7 90.1 75.291885L90.057213 75.291885z"/>
	</g>
	<g>
		<path d="M91.640938 77.773857c4.112808-2.473984 12.138565-6.384682 18.029472-16.515652 c1.6213-2.78825-1.567848-8.972038-3.113937-6.142147c-4.141853 7.581032-11.568008 12.32637-17.609093 18.2 c-2.30629 2.259163-3.730095 8.4 3.4 3.460617L91.640938 77.773857z"/>
	</g>
	<g>
		<path d="M95.877823 70.496864c9.229233-8.546661 17.286011-18.413319 22.142929-30.103168 c1.237022-2.977314-3.602837-4.26207-4.821396-1.329197C108.692245 49.9 99.8 61.6 92.4 67.2 C89.783852 69.2 93.5 72.7 95.9 70.496864L95.877823 70.496864z"/>
	</g>
	<g>
		<path d="M109.563179 55.150974c2.107948-2.655453 4.04422-5.377857 5.390915-8.50597 c0.538902-1.251774 0.384537-2.669838-0.896881-3.420475c-1.066299-0.624626-2.881233-0.355679-3.420479 0.9 c-1.171425 2.721001-2.77095 5.178471-4.609085 7.494034c-0.84642 1.066261-1.045464 2.5 0 3.5 C106.90831 56 108.7 56.2 109.6 55.150974L109.563179 55.150974z"/>
	</g>
	<g>
		<path d="M227.063187 64.90097c6.386932-7.762699 14.568985-13.862476 19.8909-22.505966 c1.695541-2.753769-4.47998-10.246525-5.029373-7.076591c-2.251831 12.992626-12.291733 18.626591-18.397064 26 C221.496552 63.8 225 67.4 227.1 64.90097L227.063187 64.90097z"/>
	</g>
	<g>
		<path d="M227.307205 66.041885c7.603943-4.669964 13.896469-11.238876 19.146881-18.396881 c1.910294-2.604343-2.431686-5.094357-4.317352-2.523598c-4.725693 6.442635-10.517975 12.405312-17.353119 16.6 C222.041946 63.4 224.6 67.7 227.3 66.041885L227.307205 66.041885z"/>
	</g>
	<g>
		<path d="M226.996887 68.621429c5.475479-4.17572 9.817123-9.565754 13.566299-14.220455 c2.002121-2.485699-1.512482-6.047226-3.535538-3.535534c-3.749176 4.654701-8.26889 8.554047-12.5 12.8 c-2.291779 2.3 1.2 5.8 3.5 3.53553L226.996887 68.621429z"/>
	</g>
	<g>
		<path d="M261.80722 62.791882c4.151154-2.309101 7.275208-5.988537 10.732513-9.176064 c3.82309-3.52475 7.65683-7.103477 10.164368-11.720814c1.53894-2.833809-0.612823-14.852322-1.533844-11.761799 c-2.726105 9.147556-8.036194 16.115238-11.240143 19.093746c-3.390808 3.152225-6.577393 6.984123-10.646484 9.2 C256.466034 60 259 64.4 261.8 62.791882L261.80722 62.791882z"/>
	</g>
	<g>
		<path d="M266.313171 62.400974c5.15329-4.9734 9.719971-10.464767 14.25-16 c2.023865-2.472958-1.492065-6.032448-3.535522-3.535534c-4.530029 5.535233-9.09671 11.0266-14.25 16 C260.45401 61.1 264 64.6 266.3 62.400974L266.313171 62.400974z"/>
	</g>
	<g>
		<path d="M266.80722 61.291882c4.567261-2.717312 7.631989-7.163113 11.005951-11.140907 c2.072144-2.442982-1.446899-5.997967-3.535522-3.535534c-3.059326 3.606865-5.855316 7.896732-9.994019 10.4 C261.516113 58.6 264 62.9 266.8 61.291882L266.80722 61.291882z"/>
	</g>
	<g>
		<path d="M266.563171 61.400974c3.50943-3.674015 7.727325-6.591492 11-10.5c2.05481-2.454014-1.463074-6.010612-3.535522-3.535534 c-3.272705 3.908508-7.49057 6.825985-11 10.5C260.801727 60.2 264.3 63.7 266.6 61.4 L266.563171 61.400974z"/>
	</g>
	<g>
		<path d="M266.580597 63.294518c3.360657-3.32798 8.985657-10.32798 11.873505-11.899513 c2.835571-1.543102-2.413483-5.075878-4.317352-2.523598c-3.443054 4.615658-10.133209 6.460735-12.747589 11.8 c-1.413666 2.9 1.3 5.1 4.1 3.078125L266.580597 63.294518z"/>
	</g>
	<g>
		<path d="M193.813187 68.90097c6.606964-6.886707 13.198257-13.979603 17.6409-22.505966 c1.487839-2.855476-2.826996-5.383892-4.317352-2.523598c-4.255676 8.167526-10.530716 14.897713-16.859085 21.5 C188.04631 67.7 191.6 71.2 193.8 68.90097L193.813187 68.90097z"/>
	</g>
	<g>
		<path d="M194.563187 64.15097c6.206192-5.483879 11.862305-11.479412 16.6409-18.255966 c1.862961-2.641861-2.739166-14.933615-3.372223-11.800186c-3.661453 18.123112-10.928177 21.328468-16.804214 26.5 C188.606842 62.8 192.2 66.3 194.6 64.15097L194.563187 64.15097z"/>
	</g>
	<g>
		<path d="M64.29541 48.883205c-3.36401-0.344643-6.16729-4.420048-8.232231-6.767765 c-2.813408-3.198689-4.590923-6.941383-6.107067-10.896833c-1.141773-2.978758-5.977356-1.686579-4.821396 1.3 c1.94878 5.1 4.3 9.6 7.9 13.671898c3.071812 3.5 6.4 7.2 11.3 7.7 C67.502121 54.2 67.5 49.2 64.3 48.883205L64.29541 48.883205z"/>
	</g>
	<g>
		<path d="M62.807213 51.474529c-5.039322-3.783325-11.791828-7.252605-14.101101-13.505924 c-1.10701-2.997684-5.940834-1.702148-4.821396 1.329201c2.860722 7.7 10.1 11.8 16.4 16.5 C62.864765 57.7 65.4 53.4 62.8 51.474529L62.807213 51.474529z"/>
	</g>
	<g>
		<path d="M60.460014 51.972507c-4.117588-1.018776-11.213074-4.43391-12.253902-9.003902 c-0.715908-3.143349-5.536388-1.810135-4.821396 1.329201c1.448257 6.4 9.9 11.1 15.7 12.5 C62.261169 57.6 63.6 52.7 60.5 51.972507L60.460014 51.972507z"/>
	</g>
	<g>
		<path d="M57.813179 47.11544c-3.008892-3.112926-5.486069-7.030792-6.857067-11.146835 c-1.013668-3.043251-5.843273-1.738705-4.821396 1.329201c1.647701 4.9 4.5 9.6 8.1 13.4 C56.521896 53 60.1 49.4 57.8 47.11544L57.813179 47.11544z"/>
	</g>
	<g>
		<path d="M57.563179 43.61544c-3.346531-3.837196-5.054516-10.098465-8.284779-14.084536 c-2.030895-2.506077-4.511215 1.889204-2.500755 4.37007c3.214493 4 3.8 9.3 7.2 13.2 C56.15073 49.6 59.7 46 57.6 43.61544L57.563179 43.61544z"/>
	</g>
	<g>
		<path d="M95.98568 68.677299c12.243912-9.106636 18.469345-23.574829 22.898895-37.74408 c0.964752-3.08606-3.862686-4.395906-4.821396-1.329199c-3.988853 12.759567-11.267769 28.779182-19.736519 35.9 C91.886627 67.5 93.4 70.6 96 68.677299L95.98568 68.677299z"/>
	</g>
</g>
</svg>
